<svg xmlns="http://www.w3.org/2000/svg" version="1.1" xmlns:xlink="http://www.w3.org/1999/xlink" xmlns:svgjs="http://svgjs.dev/svgjs" width="2000" height="1247" viewBox="0 0 2000 1247"><g transform="matrix(1,0,0,1,-1.2121212121212466,244.46334163497306)"><svg viewBox="0 0 396 247" data-background-color="#0b2943" preserveAspectRatio="xMidYMid meet" height="1247" width="2000" xmlns="http://www.w3.org/2000/svg" xmlns:xlink="http://www.w3.org/1999/xlink"><g id="tight-bounds" transform="matrix(1,0,0,1,0.2400000000000091,-0.09999999999999432)"><svg viewBox="0 0 395.52 247.2" height="247.2" width="395.52"><g><svg></svg></g><g><svg viewBox="0 0 395.52 247.2" height="247.2" width="395.52"><g transform="matrix(1,0,0,1,75.54432,54.76750974932864)"><svg viewBox="0 0 244.43135999999998 137.6649805013427" height="137.6649805013427" width="244.43135999999998"><g><svg viewBox="0 0 244.43135999999998 137.6649805013427" height="137.6649805013427" width="244.43135999999998"><g transform="matrix(1,0,0,1,0,83.25001439436505)"><svg viewBox="0 0 244.43135999999998 54.414966106977644" height="54.414966106977644" width="244.43135999999998"><g id="textblocktransform"><svg viewBox="0 0 244.43135999999998 54.414966106977644" height="54.414966106977644" width="244.43135999999998" id="textblock"><g><svg viewBox="0 0 244.43135999999998 34.09296681798213" height="34.09296681798213" width="244.43135999999998"><g transform="matrix(1,0,0,1,0,0)"><svg width="244.43135999999998" viewBox="4 -36.01 333.42 46.51" height="34.09296681798213" data-palette-color="url(#872e5a3e-8627-41da-8c2d-63936bee1890)"></svg></g></svg></g><g transform="matrix(1,0,0,1,0,42.141498052504076)"><svg viewBox="0 0 244.43135999999998 12.273468054473566" height="12.273468054473566" width="244.43135999999998"><g transform="matrix(1,0,0,1,0,0)"><svg width="244.43135999999998" viewBox="0.4 -34.55 703.01 35.3" height="12.273468054473566" data-palette-color="url(#b297b1ea-d342-450c-a66c-5e5a397fcadf)"></svg></g></svg></g></svg></g></svg></g><g transform="matrix(1,0,0,1,84.61572350258521,0)"><svg viewBox="0 0 75.19991299482956 75.20148315984311" height="75.20148315984311" width="75.19991299482956"><g><svg xmlns="http://www.w3.org/2000/svg" xmlns:xlink="http://www.w3.org/1999/xlink" version="1.1" x="0" y="0" viewBox="0.026999999999999247 0.026999999999999247 23.946500000000007 23.947000000000003" style="enable-background:new 0 0 24 24;" xml:space="preserve" height="75.20148315984311" width="75.19991299482956" class="icon-icon-0" data-fill-palette-color="accent" id="icon-0"><g fill="#ffa500" data-fill-palette-color="accent"><g fill="#ffa500" data-fill-palette-color="accent"><path d="M9.439 18.852c-5.19 0-9.412-4.223-9.412-9.413s4.222-9.412 9.412-9.412 9.413 4.222 9.413 9.412S14.629 18.852 9.439 18.852zM9.439 1.327c-4.473 0-8.112 3.639-8.112 8.112s3.639 8.112 8.112 8.112 8.112-3.639 8.112-8.112S13.912 1.327 9.439 1.327z" fill="#ffa500" data-fill-palette-color="accent"></path></g><g fill="#ffa500" data-fill-palette-color="accent"><path d="M4.99 14.438c-0.169 0-0.337-0.065-0.465-0.196C3.263 12.95 2.568 11.245 2.568 9.44c0-1.836 0.715-3.562 2.013-4.859 0.254-0.254 0.665-0.254 0.919 0s0.254 0.665 0 0.919C4.447 6.552 3.868 7.951 3.868 9.44c0 1.463 0.564 2.846 1.587 3.894 0.251 0.257 0.246 0.668-0.011 0.919C5.318 14.377 5.154 14.438 4.99 14.438z" fill="#ffa500" data-fill-palette-color="accent"></path></g><g fill="#ffa500" data-fill-palette-color="accent"><path d="M23.323 23.974c-0.166 0-0.333-0.063-0.46-0.19l-6.024-6.024c-0.254-0.254-0.254-0.666 0-0.92s0.666-0.254 0.92 0l6.024 6.024c0.254 0.254 0.254 0.666 0 0.92C23.656 23.91 23.489 23.974 23.323 23.974z" fill="#ffa500" data-fill-palette-color="accent"></path></g></g></svg></g></svg></g><g></g></svg></g></svg></g><g><path d="M102.755 46.719A122.216 122.216 0 0 1 292.765 46.719L289.691 46.719A119.141 119.141 0 0 0 105.829 46.719L102.755 46.719M102.755 200.481A122.216 122.216 0 0 0 292.765 200.481L289.691 200.481A119.141 119.141 0 0 1 105.829 200.481L102.755 200.481" fill="#0074d9" stroke="transparent" data-fill-palette-color="tertiary"></path></g></svg></g><defs></defs><mask id="e224324a-5fdf-4995-a605-43f9048a8d25"><g id="SvgjsG3775"><svg viewBox="0 0 395.52 247.2" height="247.2" width="395.52"><g><svg></svg></g><g><svg viewBox="0 0 395.52 247.2" height="247.2" width="395.52"><g transform="matrix(1,0,0,1,75.54432,54.76750974932864)"><svg viewBox="0 0 244.43135999999998 137.6649805013427" height="137.6649805013427" width="244.43135999999998"><g><svg viewBox="0 0 244.43135999999998 137.6649805013427" height="137.6649805013427" width="244.43135999999998"><g transform="matrix(1,0,0,1,0,83.25001439436505)"><svg viewBox="0 0 244.43135999999998 54.414966106977644" height="54.414966106977644" width="244.43135999999998"><g id="SvgjsG3774"><svg viewBox="0 0 244.43135999999998 54.414966106977644" height="54.414966106977644" width="244.43135999999998" id="SvgjsSvg3773"><g><svg viewBox="0 0 244.43135999999998 34.09296681798213" height="34.09296681798213" width="244.43135999999998"><g transform="matrix(1,0,0,1,0,0)"><svg width="244.43135999999998" viewBox="4 -36.01 333.42 46.51" height="34.09296681798213" data-palette-color="url(#872e5a3e-8627-41da-8c2d-63936bee1890)"><path d="M26.49-14.99L9.5-14.99Q8.47-14.99 7.56-15.39 6.64-15.8 5.96-16.47 5.27-17.14 4.88-18.05 4.49-18.97 4.49-20L4.49-20 4.49-30Q4.49-31.03 4.88-31.95 5.27-32.86 5.96-33.53 6.64-34.2 7.56-34.61 8.47-35.01 9.5-35.01L9.5-35.01 26.49-35.01Q27.51-35.01 28.43-34.61 29.35-34.2 30.03-33.53 30.71-32.86 31.1-31.95 31.49-31.03 31.49-30L31.49-30 31.49-25.49 26.49-25.49 26.49-30 9.5-30 9.5-20 26.49-20Q27.51-20 28.43-19.6 29.35-19.21 30.03-18.53 30.71-17.85 31.1-16.93 31.49-16.02 31.49-14.99L31.49-14.99 31.49-5Q31.49-3.98 31.1-3.06 30.71-2.15 30.03-1.46 29.35-0.78 28.43-0.39 27.51 0 26.49 0L26.49 0 9.01 0Q7.98 0 7.07-0.39 6.15-0.78 5.47-1.46 4.79-2.15 4.39-3.06 4-3.98 4-5L4-5 4-9.5 9.01-9.5 9.01-5 26.49-5 26.49-14.99ZM63.01-21.19L63.01-4.81Q63.01-3.81 62.63-2.93 62.25-2.05 61.61-1.4 60.96-0.76 60.08-0.38 59.2 0 58.2 0L58.2 0 44.8 0 44.8 10.5 40.01 10.5 40.01-26 44.8-26 44.8-21.61Q44.87-22.53 45.29-23.33 45.7-24.12 46.34-24.72 46.97-25.32 47.81-25.66 48.65-26 49.61-26L49.61-26 58.2-26Q59.2-26 60.08-25.62 60.96-25.24 61.61-24.6 62.25-23.95 62.63-23.07 63.01-22.19 63.01-21.19L63.01-21.19ZM44.8-4.81L58.2-4.81 58.2-21.19 44.8-21.19 44.8-4.81ZM93.5-21.19L93.5-4.81Q93.5-3.81 93.12-2.93 92.74-2.05 92.1-1.4 91.45-0.76 90.58-0.38 89.72 0 88.72 0L88.72 0 75.8 0Q74.82 0 73.95-0.38 73.07-0.76 72.42-1.4 71.77-2.05 71.39-2.93 71.02-3.81 71.02-4.81L71.02-4.81 71.02-21.19Q71.02-22.19 71.39-23.07 71.77-23.95 72.42-24.6 73.07-25.24 73.95-25.62 74.82-26 75.8-26L75.8-26 88.72-26Q89.72-26 90.58-25.62 91.45-25.24 92.1-24.6 92.74-23.95 93.12-23.07 93.5-22.19 93.5-21.19L93.5-21.19ZM88.72-21.19L75.8-21.19 75.8-4.81 88.72-4.81 88.72-21.19ZM99.99-21.19L99.99-26 106.34-26 106.34-34.01 111.15-34.01 111.15-26 119.69-26 119.69-21.19 111.15-21.19 111.15-4.81 119.69-4.81 119.69 0 111.15 0Q110.17 0 109.29-0.38 108.42-0.76 107.76-1.4 107.1-2.05 106.72-2.93 106.34-3.81 106.34-4.81L106.34-4.81 106.34-21.19 99.99-21.19ZM141.17-21.19L141.17-26 147.52-26 147.52-34.01 152.33-34.01 152.33-26 160.88-26 160.88-21.19 152.33-21.19 152.33-4.81 160.88-4.81 160.88 0 152.33 0Q151.35 0 150.48-0.38 149.6-0.76 148.94-1.4 148.28-2.05 147.9-2.93 147.52-3.81 147.52-4.81L147.52-4.81 147.52-21.19 141.17-21.19ZM191.88-21.19L191.88 0 187.07 0 187.07-21.19 173.67-21.19 173.67 0 168.88 0 168.88-36.01 173.67-36.01 173.67-21.41Q173.72-22.36 174.11-23.21 174.5-24.05 175.14-24.67 175.79-25.29 176.65-25.65 177.5-26 178.48-26L178.48-26 187.07-26Q188.07-26 188.95-25.62 189.83-25.24 190.48-24.6 191.12-23.95 191.5-23.07 191.88-22.19 191.88-21.19L191.88-21.19ZM221.88-21.19L221.88-10.55 204.67-10.55 204.67-4.81 221.88-4.81 221.88 0 204.67 0Q203.69 0 202.81-0.38 201.94-0.76 201.29-1.4 200.64-2.05 200.26-2.93 199.88-3.81 199.88-4.81L199.88-4.81 199.88-21.19Q199.88-22.19 200.26-23.07 200.64-23.95 201.29-24.6 201.94-25.24 202.81-25.62 203.69-26 204.67-26L204.67-26 217.07-26Q218.07-26 218.95-25.62 219.83-25.24 220.48-24.6 221.13-23.95 221.5-23.07 221.88-22.19 221.88-21.19L221.88-21.19ZM217.07-21.19L204.67-21.19 204.67-15.36 217.07-15.36 217.07-21.19ZM242.36-30L242.36-35.01 270.36-35.01 270.36-30 258.86-30 258.86 0 253.86 0 253.86-30 242.36-30ZM273.36-30L273.36-35.01 301.37-35.01 301.37-30 289.87-30 289.87 0 284.86 0 284.86-30 273.36-30ZM312.37-5L325.17-5Q328.66-5 330.54-6.88 332.42-8.76 332.42-12.26L332.42-12.26 332.42-22.75Q332.42-24.46 331.93-25.81 331.44-27.15 330.5-28.09 329.56-29.03 328.22-29.52 326.88-30 325.17-30L325.17-30 312.37-30 312.37-5ZM325.17 0L307.37 0 307.37-35.01 325.17-35.01Q327.98-35.01 330.23-34.14 332.49-33.28 334.09-31.68 335.69-30.08 336.56-27.81 337.42-25.54 337.42-22.75L337.42-22.75 337.42-12.26Q337.42-9.47 336.56-7.2 335.69-4.93 334.09-3.33 332.49-1.73 330.23-0.87 327.98 0 325.17 0L325.17 0Z" opacity="1" transform="matrix(1,0,0,1,0,0)" fill="white" class="wordmark-text-0" id="SvgjsPath3772"></path></svg></g></svg></g><g transform="matrix(1,0,0,1,0,42.141498052504076)"><svg viewBox="0 0 244.43135999999998 12.273468054473566" height="12.273468054473566" width="244.43135999999998"><g transform="matrix(1,0,0,1,0,0)"><svg width="244.43135999999998" viewBox="0.4 -34.55 703.01 35.3" height="12.273468054473566" data-palette-color="url(#b297b1ea-d342-450c-a66c-5e5a397fcadf)"><path d="M0.4-34.55L21.95-34.55 21.25-29.55 14.15-29.55 14.15 0 7.8 0 7.8-29.55 0.4-29.55 0.4-34.55ZM119.39-13.85Q119.39-13.4 119.24-11.3L119.24-11.3 105.59-11.3Q105.79-7.2 107.01-5.58 108.24-3.95 110.49-3.95L110.49-3.95Q112.04-3.95 113.29-4.48 114.54-5 115.99-6.15L115.99-6.15 118.54-2.65Q115.04 0.75 110.14 0.75L110.14 0.75Q104.94 0.75 102.16-2.85 99.39-6.45 99.39-13L99.39-13Q99.39-19.55 102.04-23.35 104.69-27.15 109.54-27.15L109.54-27.15Q114.19-27.15 116.79-23.78 119.39-20.4 119.39-13.85L119.39-13.85ZM113.39-15.3L113.39-15.65Q113.39-19.4 112.49-21.13 111.59-22.85 109.59-22.85L109.59-22.85Q107.74-22.85 106.76-21.18 105.79-19.5 105.59-15.3L105.59-15.3 113.39-15.3ZM216.28-6.4Q216.28-5.1 216.63-4.48 216.98-3.85 217.78-3.45L217.78-3.45 216.53 0.65Q214.48 0.4 213.25-0.45 212.03-1.3 211.43-3.05L211.43-3.05Q209.13 0.75 204.98 0.75L204.98 0.75Q201.68 0.75 199.73-1.48 197.78-3.7 197.78-7.4L197.78-7.4Q197.78-11.7 200.45-13.95 203.13-16.2 208.23-16.2L208.23-16.2 210.28-16.2 210.28-18.05Q210.28-20.55 209.4-21.58 208.53-22.6 206.58-22.6L206.58-22.6Q204.23-22.6 200.73-21.3L200.73-21.3 199.33-25.3Q201.33-26.2 203.48-26.68 205.63-27.15 207.58-27.15L207.58-27.15Q216.28-27.15 216.28-18.35L216.28-18.35 216.28-6.4ZM206.63-3.7Q209.03-3.7 210.28-7L210.28-7 210.28-12.55 208.83-12.55Q206.28-12.55 205.1-11.4 203.93-10.25 203.93-7.85L203.93-7.85Q203.93-5.8 204.63-4.75 205.33-3.7 206.63-3.7L206.63-3.7ZM321.41-27.15Q324.06-27.15 325.66-25.1 327.26-23.05 327.26-19.6L327.26-19.6 327.26 0 321.21 0 321.21-18.95Q321.21-20.85 320.71-21.68 320.21-22.5 319.26-22.5L319.26-22.5Q317.31-22.5 315.51-18.8L315.51-18.8 315.51 0 309.51 0 309.51-18.95Q309.51-22.5 307.61-22.5L307.61-22.5Q305.56-22.5 303.81-18.8L303.81-18.8 303.81 0 297.76 0 297.76-26.45 303.11-26.45 303.51-23.05Q306.11-27.15 309.76-27.15L309.76-27.15Q311.61-27.15 312.96-26 314.31-24.85 315.01-22.75L315.01-22.75Q317.66-27.15 321.41-27.15L321.41-27.15ZM500.44-34.25Q503.39-34.25 505.54-33.05 507.69-31.85 508.79-29.78 509.89-27.7 509.89-25.1L509.89-25.1Q509.89-22.2 508.89-19.6 507.89-17 505.54-13.68 503.19-10.35 498.59-4.9L498.59-4.9 510.49-4.9 509.84 0 492.04 0 492.04-4.55Q496.99-10.75 499.36-14.13 501.74-17.5 502.66-19.85 503.59-22.2 503.59-24.75L503.59-24.75Q503.59-27.05 502.59-28.23 501.59-29.4 499.84-29.4L499.84-29.4Q498.39-29.4 497.26-28.63 496.14-27.85 494.79-26.05L494.79-26.05 491.14-28.8Q494.69-34.25 500.44-34.25L500.44-34.25ZM600.08-34.25Q605.13-34.25 607.73-29.9 610.33-25.55 610.33-16.8L610.33-16.8Q610.33 0.75 600.08 0.75L600.08 0.75Q589.73 0.75 589.73-16.8L589.73-16.8Q589.73-34.25 600.08-34.25L600.08-34.25ZM600.08-29.6Q598.63-29.6 597.75-28.48 596.88-27.35 596.45-24.58 596.03-21.8 596.03-16.8L596.03-16.8Q596.03-11.75 596.45-8.97 596.88-6.2 597.75-5.08 598.63-3.95 600.08-3.95L600.08-3.95Q601.53-3.95 602.38-5.08 603.23-6.2 603.63-8.97 604.03-11.75 604.03-16.8L604.03-16.8Q604.03-21.85 603.63-24.6 603.23-27.35 602.38-28.48 601.53-29.6 600.08-29.6L600.08-29.6ZM697.91-33.6L703.41-33.6 703.41 0 697.41 0 697.41-27.45 691.41-23.05 688.66-26.95 697.91-33.6Z" opacity="1" transform="matrix(1,0,0,1,0,0)" fill="black" class="slogan-text-1" id="SvgjsPath3771"></path></svg></g></svg></g></svg></g></svg></g><g transform="matrix(1,0,0,1,84.61572350258521,0)"><svg viewBox="0 0 75.19991299482956 75.20148315984311" height="75.20148315984311" width="75.19991299482956"><g><svg xmlns="http://www.w3.org/2000/svg" xmlns:xlink="http://www.w3.org/1999/xlink" version="1.1" x="0" y="0" viewBox="0.026999999999999247 0.026999999999999247 23.946500000000007 23.947000000000003" style="enable-background:new 0 0 24 24;" xml:space="preserve" height="75.20148315984311" width="75.19991299482956" class="icon-icon-0" data-fill-palette-color="accent" id="SvgjsSvg3770"><g fill="black"><g fill="black"><path d="M9.439 18.852c-5.19 0-9.412-4.223-9.412-9.413s4.222-9.412 9.412-9.412 9.413 4.222 9.413 9.412S14.629 18.852 9.439 18.852zM9.439 1.327c-4.473 0-8.112 3.639-8.112 8.112s3.639 8.112 8.112 8.112 8.112-3.639 8.112-8.112S13.912 1.327 9.439 1.327z" fill="black"></path></g><g fill="black"><path d="M4.99 14.438c-0.169 0-0.337-0.065-0.465-0.196C3.263 12.95 2.568 11.245 2.568 9.44c0-1.836 0.715-3.562 2.013-4.859 0.254-0.254 0.665-0.254 0.919 0s0.254 0.665 0 0.919C4.447 6.552 3.868 7.951 3.868 9.44c0 1.463 0.564 2.846 1.587 3.894 0.251 0.257 0.246 0.668-0.011 0.919C5.318 14.377 5.154 14.438 4.99 14.438z" fill="black"></path></g><g fill="black"><path d="M23.323 23.974c-0.166 0-0.333-0.063-0.46-0.19l-6.024-6.024c-0.254-0.254-0.254-0.666 0-0.92s0.666-0.254 0.92 0l6.024 6.024c0.254 0.254 0.254 0.666 0 0.92C23.656 23.91 23.489 23.974 23.323 23.974z" fill="black"></path></g></g></svg></g></svg></g><g></g></svg></g></svg></g><g><path d="M102.755 46.719A122.216 122.216 0 0 1 292.765 46.719L289.691 46.719A119.141 119.141 0 0 0 105.829 46.719L102.755 46.719M102.755 200.481A122.216 122.216 0 0 0 292.765 200.481L289.691 200.481A119.141 119.141 0 0 1 105.829 200.481L102.755 200.481" fill="black" stroke="transparent"></path></g></svg></g><defs><mask></mask></defs></svg><rect width="395.52" height="247.2" fill="black" stroke="none" visibility="hidden"></rect></g></mask><linearGradient x1="0" x2="1" y1="0.578" y2="0.595" id="872e5a3e-8627-41da-8c2d-63936bee1890"><stop stop-color="#6ee2f5" offset="0"></stop><stop stop-color="#6454f0" offset="1"></stop></linearGradient><rect width="395.52" height="247.2" fill="url(#872e5a3e-8627-41da-8c2d-63936bee1890)" mask="url(#e224324a-5fdf-4995-a605-43f9048a8d25)" data-fill-palette-color="primary"></rect><mask id="619b29c7-03a2-41e8-a105-e50a61a1ebb5"><g id="SvgjsG3786"><svg viewBox="0 0 395.52 247.2" height="247.2" width="395.52"><g><svg></svg></g><g><svg viewBox="0 0 395.52 247.2" height="247.2" width="395.52"><g transform="matrix(1,0,0,1,75.54432,54.76750974932864)"><svg viewBox="0 0 244.43135999999998 137.6649805013427" height="137.6649805013427" width="244.43135999999998"><g><svg viewBox="0 0 244.43135999999998 137.6649805013427" height="137.6649805013427" width="244.43135999999998"><g transform="matrix(1,0,0,1,0,83.25001439436505)"><svg viewBox="0 0 244.43135999999998 54.414966106977644" height="54.414966106977644" width="244.43135999999998"><g id="SvgjsG3785"><svg viewBox="0 0 244.43135999999998 54.414966106977644" height="54.414966106977644" width="244.43135999999998" id="SvgjsSvg3784"><g><svg viewBox="0 0 244.43135999999998 34.09296681798213" height="34.09296681798213" width="244.43135999999998"><g transform="matrix(1,0,0,1,0,0)"><svg width="244.43135999999998" viewBox="4 -36.01 333.42 46.51" height="34.09296681798213" data-palette-color="url(#872e5a3e-8627-41da-8c2d-63936bee1890)"></svg></g></svg></g><g transform="matrix(1,0,0,1,0,42.141498052504076)"><svg viewBox="0 0 244.43135999999998 12.273468054473566" height="12.273468054473566" width="244.43135999999998"><g transform="matrix(1,0,0,1,0,0)"><svg width="244.43135999999998" viewBox="0.4 -34.55 703.01 35.3" height="12.273468054473566" data-palette-color="url(#b297b1ea-d342-450c-a66c-5e5a397fcadf)"><path d="M0.4-34.55L21.95-34.55 21.25-29.55 14.15-29.55 14.15 0 7.8 0 7.8-29.55 0.4-29.55 0.4-34.55ZM119.39-13.85Q119.39-13.4 119.24-11.3L119.24-11.3 105.59-11.3Q105.79-7.2 107.01-5.58 108.24-3.95 110.49-3.95L110.49-3.95Q112.04-3.95 113.29-4.48 114.54-5 115.99-6.15L115.99-6.15 118.54-2.65Q115.04 0.75 110.14 0.75L110.14 0.75Q104.94 0.75 102.16-2.85 99.39-6.45 99.39-13L99.39-13Q99.39-19.55 102.04-23.35 104.69-27.15 109.54-27.15L109.54-27.15Q114.19-27.15 116.79-23.78 119.39-20.4 119.39-13.85L119.39-13.85ZM113.39-15.3L113.39-15.65Q113.39-19.4 112.49-21.13 111.59-22.85 109.59-22.85L109.59-22.85Q107.74-22.85 106.76-21.18 105.79-19.5 105.59-15.3L105.59-15.3 113.39-15.3ZM216.28-6.4Q216.28-5.1 216.63-4.48 216.98-3.85 217.78-3.45L217.78-3.45 216.53 0.65Q214.48 0.4 213.25-0.45 212.03-1.3 211.43-3.05L211.43-3.05Q209.13 0.75 204.98 0.75L204.98 0.75Q201.68 0.75 199.73-1.48 197.78-3.7 197.78-7.4L197.78-7.4Q197.78-11.7 200.45-13.95 203.13-16.2 208.23-16.2L208.23-16.2 210.28-16.2 210.28-18.05Q210.28-20.55 209.4-21.58 208.53-22.6 206.58-22.6L206.58-22.6Q204.23-22.6 200.73-21.3L200.73-21.3 199.33-25.3Q201.33-26.2 203.48-26.68 205.63-27.15 207.58-27.15L207.58-27.15Q216.28-27.15 216.28-18.35L216.28-18.35 216.28-6.4ZM206.63-3.7Q209.03-3.7 210.28-7L210.28-7 210.28-12.55 208.83-12.55Q206.28-12.55 205.1-11.4 203.93-10.25 203.93-7.85L203.93-7.85Q203.93-5.8 204.63-4.75 205.33-3.7 206.63-3.7L206.63-3.7ZM321.41-27.15Q324.06-27.15 325.66-25.1 327.26-23.05 327.26-19.6L327.26-19.6 327.26 0 321.21 0 321.21-18.95Q321.21-20.85 320.71-21.68 320.21-22.5 319.26-22.5L319.26-22.5Q317.31-22.5 315.51-18.8L315.51-18.8 315.51 0 309.51 0 309.51-18.95Q309.51-22.5 307.61-22.5L307.61-22.5Q305.56-22.5 303.81-18.8L303.81-18.8 303.81 0 297.76 0 297.76-26.45 303.11-26.45 303.51-23.05Q306.11-27.15 309.76-27.15L309.76-27.15Q311.61-27.15 312.96-26 314.31-24.85 315.01-22.75L315.01-22.75Q317.66-27.15 321.41-27.15L321.41-27.15ZM500.44-34.25Q503.39-34.25 505.54-33.05 507.69-31.85 508.79-29.78 509.89-27.7 509.89-25.1L509.89-25.1Q509.89-22.2 508.89-19.6 507.89-17 505.54-13.68 503.19-10.35 498.59-4.9L498.59-4.9 510.49-4.9 509.84 0 492.04 0 492.04-4.55Q496.99-10.75 499.36-14.13 501.74-17.5 502.66-19.85 503.59-22.2 503.59-24.75L503.59-24.75Q503.59-27.05 502.59-28.23 501.59-29.4 499.84-29.4L499.84-29.4Q498.39-29.4 497.26-28.63 496.14-27.85 494.79-26.05L494.79-26.05 491.14-28.8Q494.69-34.25 500.44-34.25L500.44-34.25ZM600.08-34.25Q605.13-34.25 607.73-29.9 610.33-25.55 610.33-16.8L610.33-16.8Q610.33 0.75 600.08 0.75L600.08 0.75Q589.73 0.75 589.73-16.8L589.73-16.8Q589.73-34.25 600.08-34.25L600.08-34.25ZM600.08-29.6Q598.63-29.6 597.75-28.48 596.88-27.35 596.45-24.58 596.03-21.8 596.03-16.8L596.03-16.8Q596.03-11.75 596.45-8.97 596.88-6.2 597.75-5.08 598.63-3.95 600.08-3.95L600.08-3.95Q601.53-3.95 602.38-5.08 603.23-6.2 603.63-8.97 604.03-11.75 604.03-16.8L604.03-16.8Q604.03-21.85 603.63-24.6 603.23-27.35 602.38-28.48 601.53-29.6 600.08-29.6L600.08-29.6ZM697.91-33.6L703.41-33.6 703.41 0 697.41 0 697.41-27.45 691.41-23.05 688.66-26.95 697.91-33.6Z" opacity="1" transform="matrix(1,0,0,1,0,0)" fill="white" class="slogan-text-1" id="SvgjsPath3783"></path></svg></g></svg></g></svg></g></svg></g><g transform="matrix(1,0,0,1,84.61572350258521,0)"><svg viewBox="0 0 75.19991299482956 75.20148315984311" height="75.20148315984311" width="75.19991299482956"><g><svg xmlns="http://www.w3.org/2000/svg" xmlns:xlink="http://www.w3.org/1999/xlink" version="1.1" x="0" y="0" viewBox="0.026999999999999247 0.026999999999999247 23.946500000000007 23.947000000000003" style="enable-background:new 0 0 24 24;" xml:space="preserve" height="75.20148315984311" width="75.19991299482956" class="icon-icon-0" data-fill-palette-color="accent" id="SvgjsSvg3782"><g fill="black"><g fill="black"><path d="M9.439 18.852c-5.19 0-9.412-4.223-9.412-9.413s4.222-9.412 9.412-9.412 9.413 4.222 9.413 9.412S14.629 18.852 9.439 18.852zM9.439 1.327c-4.473 0-8.112 3.639-8.112 8.112s3.639 8.112 8.112 8.112 8.112-3.639 8.112-8.112S13.912 1.327 9.439 1.327z" fill="black"></path></g><g fill="black"><path d="M4.99 14.438c-0.169 0-0.337-0.065-0.465-0.196C3.263 12.95 2.568 11.245 2.568 9.44c0-1.836 0.715-3.562 2.013-4.859 0.254-0.254 0.665-0.254 0.919 0s0.254 0.665 0 0.919C4.447 6.552 3.868 7.951 3.868 9.44c0 1.463 0.564 2.846 1.587 3.894 0.251 0.257 0.246 0.668-0.011 0.919C5.318 14.377 5.154 14.438 4.99 14.438z" fill="black"></path></g><g fill="black"><path d="M23.323 23.974c-0.166 0-0.333-0.063-0.46-0.19l-6.024-6.024c-0.254-0.254-0.254-0.666 0-0.92s0.666-0.254 0.92 0l6.024 6.024c0.254 0.254 0.254 0.666 0 0.92C23.656 23.91 23.489 23.974 23.323 23.974z" fill="black"></path></g></g></svg></g></svg></g><g></g></svg></g></svg></g><g><path d="M102.755 46.719A122.216 122.216 0 0 1 292.765 46.719L289.691 46.719A119.141 119.141 0 0 0 105.829 46.719L102.755 46.719M102.755 200.481A122.216 122.216 0 0 0 292.765 200.481L289.691 200.481A119.141 119.141 0 0 1 105.829 200.481L102.755 200.481" fill="black" stroke="transparent"></path></g></svg></g><defs><mask></mask></defs><mask><g id="SvgjsG3781"><svg viewBox="0 0 395.52 247.2" height="247.2" width="395.52"><g><svg></svg></g><g><svg viewBox="0 0 395.52 247.2" height="247.2" width="395.52"><g transform="matrix(1,0,0,1,75.54432,54.76750974932864)"><svg viewBox="0 0 244.43135999999998 137.6649805013427" height="137.6649805013427" width="244.43135999999998"><g><svg viewBox="0 0 244.43135999999998 137.6649805013427" height="137.6649805013427" width="244.43135999999998"><g transform="matrix(1,0,0,1,0,83.25001439436505)"><svg viewBox="0 0 244.43135999999998 54.414966106977644" height="54.414966106977644" width="244.43135999999998"><g id="SvgjsG3780"><svg viewBox="0 0 244.43135999999998 54.414966106977644" height="54.414966106977644" width="244.43135999999998" id="SvgjsSvg3779"><g><svg viewBox="0 0 244.43135999999998 34.09296681798213" height="34.09296681798213" width="244.43135999999998"><g transform="matrix(1,0,0,1,0,0)"><svg width="244.43135999999998" viewBox="4 -36.01 333.42 46.51" height="34.09296681798213" data-palette-color="url(#872e5a3e-8627-41da-8c2d-63936bee1890)"><path d="M26.49-14.99L9.5-14.99Q8.47-14.99 7.56-15.39 6.64-15.8 5.96-16.47 5.27-17.14 4.88-18.05 4.49-18.97 4.49-20L4.49-20 4.49-30Q4.49-31.03 4.88-31.95 5.27-32.86 5.96-33.53 6.64-34.2 7.56-34.61 8.47-35.01 9.5-35.01L9.5-35.01 26.49-35.01Q27.51-35.01 28.43-34.61 29.35-34.2 30.03-33.53 30.71-32.86 31.1-31.95 31.49-31.03 31.49-30L31.49-30 31.49-25.49 26.49-25.49 26.49-30 9.5-30 9.5-20 26.49-20Q27.51-20 28.43-19.6 29.35-19.21 30.03-18.53 30.71-17.85 31.1-16.93 31.49-16.02 31.49-14.99L31.49-14.99 31.49-5Q31.49-3.98 31.1-3.06 30.71-2.15 30.03-1.46 29.35-0.78 28.43-0.39 27.51 0 26.49 0L26.49 0 9.01 0Q7.98 0 7.07-0.39 6.15-0.78 5.47-1.46 4.79-2.15 4.39-3.06 4-3.98 4-5L4-5 4-9.5 9.01-9.5 9.01-5 26.49-5 26.49-14.99ZM63.01-21.19L63.01-4.81Q63.01-3.81 62.63-2.93 62.25-2.05 61.61-1.4 60.96-0.76 60.08-0.38 59.2 0 58.2 0L58.2 0 44.8 0 44.8 10.5 40.01 10.5 40.01-26 44.8-26 44.8-21.61Q44.87-22.53 45.29-23.33 45.7-24.12 46.34-24.72 46.97-25.32 47.81-25.66 48.65-26 49.61-26L49.61-26 58.2-26Q59.2-26 60.08-25.62 60.96-25.24 61.61-24.6 62.25-23.95 62.63-23.07 63.01-22.19 63.01-21.19L63.01-21.19ZM44.8-4.81L58.2-4.81 58.2-21.19 44.8-21.19 44.8-4.81ZM93.5-21.19L93.5-4.81Q93.5-3.81 93.12-2.93 92.74-2.05 92.1-1.4 91.45-0.76 90.58-0.38 89.72 0 88.72 0L88.72 0 75.8 0Q74.82 0 73.95-0.38 73.07-0.76 72.42-1.4 71.77-2.05 71.39-2.93 71.02-3.81 71.02-4.81L71.02-4.81 71.02-21.19Q71.02-22.19 71.39-23.07 71.77-23.95 72.42-24.6 73.07-25.24 73.95-25.62 74.82-26 75.8-26L75.8-26 88.72-26Q89.72-26 90.58-25.62 91.45-25.24 92.1-24.6 92.74-23.95 93.12-23.07 93.5-22.19 93.5-21.19L93.5-21.19ZM88.72-21.19L75.8-21.19 75.8-4.81 88.72-4.81 88.72-21.19ZM99.99-21.19L99.99-26 106.34-26 106.34-34.01 111.15-34.01 111.15-26 119.69-26 119.69-21.19 111.15-21.19 111.15-4.81 119.69-4.81 119.69 0 111.15 0Q110.17 0 109.29-0.38 108.42-0.76 107.76-1.4 107.1-2.05 106.72-2.93 106.34-3.81 106.34-4.81L106.34-4.81 106.34-21.19 99.99-21.19ZM141.17-21.19L141.17-26 147.52-26 147.52-34.01 152.33-34.01 152.33-26 160.88-26 160.88-21.19 152.33-21.19 152.33-4.81 160.88-4.81 160.88 0 152.33 0Q151.35 0 150.48-0.38 149.6-0.76 148.94-1.4 148.28-2.05 147.9-2.93 147.52-3.81 147.52-4.81L147.52-4.81 147.52-21.19 141.17-21.19ZM191.88-21.19L191.88 0 187.07 0 187.07-21.19 173.67-21.19 173.67 0 168.88 0 168.88-36.01 173.67-36.01 173.67-21.41Q173.72-22.36 174.11-23.21 174.5-24.05 175.14-24.67 175.79-25.29 176.65-25.65 177.5-26 178.48-26L178.48-26 187.07-26Q188.07-26 188.95-25.62 189.83-25.24 190.48-24.6 191.12-23.95 191.5-23.07 191.88-22.19 191.88-21.19L191.88-21.19ZM221.88-21.19L221.88-10.55 204.67-10.55 204.67-4.81 221.88-4.81 221.88 0 204.67 0Q203.69 0 202.81-0.38 201.94-0.76 201.29-1.4 200.64-2.05 200.26-2.93 199.88-3.81 199.88-4.81L199.88-4.81 199.88-21.19Q199.88-22.19 200.26-23.07 200.64-23.95 201.29-24.6 201.94-25.24 202.81-25.62 203.69-26 204.67-26L204.67-26 217.07-26Q218.07-26 218.95-25.62 219.83-25.24 220.48-24.6 221.13-23.95 221.5-23.07 221.88-22.19 221.88-21.19L221.88-21.19ZM217.07-21.19L204.67-21.19 204.67-15.36 217.07-15.36 217.07-21.19ZM242.36-30L242.36-35.01 270.36-35.01 270.36-30 258.86-30 258.86 0 253.86 0 253.86-30 242.36-30ZM273.36-30L273.36-35.01 301.37-35.01 301.37-30 289.87-30 289.87 0 284.86 0 284.86-30 273.36-30ZM312.37-5L325.17-5Q328.66-5 330.54-6.88 332.42-8.76 332.42-12.26L332.42-12.26 332.42-22.75Q332.42-24.46 331.93-25.81 331.44-27.15 330.5-28.09 329.56-29.03 328.22-29.52 326.88-30 325.17-30L325.17-30 312.37-30 312.37-5ZM325.17 0L307.37 0 307.37-35.01 325.17-35.01Q327.98-35.01 330.23-34.14 332.49-33.28 334.09-31.68 335.69-30.08 336.56-27.81 337.42-25.54 337.42-22.75L337.42-22.75 337.42-12.26Q337.42-9.47 336.56-7.2 335.69-4.93 334.09-3.33 332.49-1.73 330.23-0.87 327.98 0 325.17 0L325.17 0Z" opacity="1" transform="matrix(1,0,0,1,0,0)" fill="black" class="wordmark-text-0" id="SvgjsPath3778"></path></svg></g></svg></g><g transform="matrix(1,0,0,1,0,42.141498052504076)"><svg viewBox="0 0 244.43135999999998 12.273468054473566" height="12.273468054473566" width="244.43135999999998"><g transform="matrix(1,0,0,1,0,0)"><svg width="244.43135999999998" viewBox="0.4 -34.55 703.01 35.3" height="12.273468054473566" data-palette-color="url(#b297b1ea-d342-450c-a66c-5e5a397fcadf)"><path d="M0.4-34.55L21.95-34.55 21.25-29.55 14.15-29.55 14.15 0 7.8 0 7.8-29.55 0.4-29.55 0.4-34.55ZM119.39-13.85Q119.39-13.4 119.24-11.3L119.24-11.3 105.59-11.3Q105.79-7.2 107.01-5.58 108.24-3.95 110.49-3.95L110.49-3.95Q112.04-3.95 113.29-4.48 114.54-5 115.99-6.15L115.99-6.15 118.54-2.65Q115.04 0.75 110.14 0.75L110.14 0.75Q104.94 0.75 102.16-2.85 99.39-6.45 99.39-13L99.39-13Q99.39-19.55 102.04-23.35 104.69-27.15 109.54-27.15L109.54-27.15Q114.19-27.15 116.79-23.78 119.39-20.4 119.39-13.85L119.39-13.85ZM113.39-15.3L113.39-15.65Q113.39-19.4 112.49-21.13 111.59-22.85 109.59-22.85L109.59-22.85Q107.74-22.85 106.76-21.18 105.79-19.5 105.59-15.3L105.59-15.3 113.39-15.3ZM216.28-6.4Q216.28-5.1 216.63-4.48 216.98-3.85 217.78-3.45L217.78-3.45 216.53 0.65Q214.48 0.4 213.25-0.45 212.03-1.3 211.43-3.05L211.43-3.05Q209.13 0.75 204.98 0.75L204.98 0.75Q201.68 0.75 199.73-1.48 197.78-3.7 197.78-7.4L197.78-7.4Q197.78-11.7 200.45-13.95 203.13-16.2 208.23-16.2L208.23-16.2 210.28-16.2 210.28-18.05Q210.28-20.55 209.4-21.58 208.53-22.6 206.58-22.6L206.58-22.6Q204.23-22.6 200.73-21.3L200.73-21.3 199.33-25.3Q201.33-26.2 203.48-26.68 205.63-27.15 207.58-27.15L207.58-27.15Q216.28-27.15 216.28-18.35L216.28-18.35 216.28-6.4ZM206.63-3.7Q209.03-3.7 210.28-7L210.28-7 210.28-12.55 208.83-12.55Q206.28-12.55 205.1-11.4 203.93-10.25 203.93-7.85L203.93-7.85Q203.93-5.8 204.63-4.75 205.33-3.7 206.63-3.7L206.63-3.7ZM321.41-27.15Q324.06-27.15 325.66-25.1 327.26-23.05 327.26-19.6L327.26-19.6 327.26 0 321.21 0 321.21-18.95Q321.21-20.85 320.71-21.68 320.21-22.5 319.26-22.5L319.26-22.5Q317.31-22.5 315.51-18.8L315.51-18.8 315.51 0 309.51 0 309.51-18.95Q309.51-22.5 307.61-22.5L307.61-22.5Q305.56-22.5 303.81-18.8L303.81-18.8 303.81 0 297.76 0 297.76-26.45 303.11-26.45 303.51-23.05Q306.11-27.15 309.76-27.15L309.76-27.15Q311.61-27.15 312.96-26 314.31-24.85 315.01-22.75L315.01-22.75Q317.66-27.15 321.41-27.15L321.41-27.15ZM500.44-34.25Q503.39-34.25 505.54-33.05 507.69-31.85 508.79-29.78 509.89-27.7 509.89-25.1L509.89-25.1Q509.89-22.2 508.89-19.6 507.89-17 505.54-13.68 503.19-10.35 498.59-4.9L498.59-4.9 510.49-4.9 509.84 0 492.04 0 492.04-4.55Q496.99-10.75 499.36-14.13 501.74-17.5 502.66-19.85 503.59-22.2 503.59-24.75L503.59-24.75Q503.59-27.05 502.59-28.23 501.59-29.4 499.84-29.4L499.84-29.4Q498.39-29.4 497.26-28.63 496.14-27.85 494.79-26.05L494.79-26.05 491.14-28.8Q494.69-34.25 500.44-34.25L500.44-34.25ZM600.08-34.25Q605.13-34.25 607.73-29.9 610.33-25.55 610.33-16.8L610.33-16.8Q610.33 0.75 600.08 0.75L600.08 0.75Q589.73 0.75 589.73-16.8L589.73-16.8Q589.73-34.25 600.08-34.25L600.08-34.25ZM600.08-29.6Q598.63-29.6 597.75-28.48 596.88-27.35 596.45-24.58 596.03-21.8 596.03-16.8L596.03-16.8Q596.03-11.75 596.45-8.97 596.88-6.2 597.75-5.08 598.63-3.95 600.08-3.95L600.08-3.95Q601.53-3.95 602.38-5.08 603.23-6.2 603.63-8.97 604.03-11.75 604.03-16.8L604.03-16.8Q604.03-21.85 603.63-24.6 603.23-27.35 602.38-28.48 601.53-29.6 600.08-29.6L600.08-29.6ZM697.91-33.6L703.41-33.6 703.41 0 697.41 0 697.41-27.45 691.41-23.05 688.66-26.95 697.91-33.6Z" opacity="1" transform="matrix(1,0,0,1,0,0)" fill="black" class="slogan-text-1" id="SvgjsPath3777"></path></svg></g></svg></g></svg></g></svg></g><g transform="matrix(1,0,0,1,84.61572350258521,0)"><svg viewBox="0 0 75.19991299482956 75.20148315984311" height="75.20148315984311" width="75.19991299482956"><g><svg xmlns="http://www.w3.org/2000/svg" xmlns:xlink="http://www.w3.org/1999/xlink" version="1.1" x="0" y="0" viewBox="0.026999999999999247 0.026999999999999247 23.946500000000007 23.947000000000003" style="enable-background:new 0 0 24 24;" xml:space="preserve" height="75.20148315984311" width="75.19991299482956" class="icon-icon-0" data-fill-palette-color="accent" id="SvgjsSvg3776"><g fill="black"><g fill="black"><path d="M9.439 18.852c-5.19 0-9.412-4.223-9.412-9.413s4.222-9.412 9.412-9.412 9.413 4.222 9.413 9.412S14.629 18.852 9.439 18.852zM9.439 1.327c-4.473 0-8.112 3.639-8.112 8.112s3.639 8.112 8.112 8.112 8.112-3.639 8.112-8.112S13.912 1.327 9.439 1.327z" fill="black"></path></g><g fill="black"><path d="M4.99 14.438c-0.169 0-0.337-0.065-0.465-0.196C3.263 12.95 2.568 11.245 2.568 9.44c0-1.836 0.715-3.562 2.013-4.859 0.254-0.254 0.665-0.254 0.919 0s0.254 0.665 0 0.919C4.447 6.552 3.868 7.951 3.868 9.44c0 1.463 0.564 2.846 1.587 3.894 0.251 0.257 0.246 0.668-0.011 0.919C5.318 14.377 5.154 14.438 4.99 14.438z" fill="black"></path></g><g fill="black"><path d="M23.323 23.974c-0.166 0-0.333-0.063-0.46-0.19l-6.024-6.024c-0.254-0.254-0.254-0.666 0-0.92s0.666-0.254 0.92 0l6.024 6.024c0.254 0.254 0.254 0.666 0 0.92C23.656 23.91 23.489 23.974 23.323 23.974z" fill="black"></path></g></g></svg></g></svg></g><g></g></svg></g></svg></g><g><path d="M102.755 46.719A122.216 122.216 0 0 1 292.765 46.719L289.691 46.719A119.141 119.141 0 0 0 105.829 46.719L102.755 46.719M102.755 200.481A122.216 122.216 0 0 0 292.765 200.481L289.691 200.481A119.141 119.141 0 0 1 105.829 200.481L102.755 200.481" fill="black" stroke="transparent"></path></g></svg></g><defs><mask></mask></defs></svg><rect width="395.52" height="247.2" fill="black" stroke="none" visibility="hidden"></rect></g></mask></svg><rect width="395.52" height="247.2" fill="black" stroke="none" visibility="hidden"></rect></g></mask><linearGradient x1="0" x2="1" y1="0.578" y2="0.595" id="b297b1ea-d342-450c-a66c-5e5a397fcadf"><stop stop-color="#6ee2f5" offset="0"></stop><stop stop-color="#6454f0" offset="1"></stop></linearGradient><rect width="395.52" height="247.2" fill="url(#b297b1ea-d342-450c-a66c-5e5a397fcadf)" mask="url(#619b29c7-03a2-41e8-a105-e50a61a1ebb5)" data-fill-palette-color="secondary"></rect></svg><rect width="395.52" height="247.2" fill="none" stroke="none" visibility="hidden"></rect></g></svg></g></svg>