<svg xmlns="http://www.w3.org/2000/svg" version="1.1" xmlns:xlink="http://www.w3.org/1999/xlink" xmlns:svgjs="http://svgjs.dev/svgjs" width="2000" height="1247" viewBox="0 0 2000 1247"><g transform="matrix(1,0,0,1,-1.2121212121212466,0.504858299595071)"><svg viewBox="0 0 396 247" data-background-color="#7291dd" preserveAspectRatio="xMidYMid meet" height="1247" width="2000" xmlns="http://www.w3.org/2000/svg" xmlns:xlink="http://www.w3.org/1999/xlink"><g id="tight-bounds" transform="matrix(1,0,0,1,0.2400000000000091,-0.09999999999999432)"><svg viewBox="0 0 395.52 247.2" height="247.2" width="395.52"><g><svg></svg></g><g><svg viewBox="0 0 395.52 247.2" height="247.2" width="395.52"><g transform="matrix(1,0,0,1,2.842170943040401e-14,49.63923958652762)"><svg viewBox="0 0 395.5199999999999 147.92152082694474" height="147.92152082694474" width="395.5199999999999"><g><svg viewBox="0 0 397.4976 148.66112843107948" height="147.92152082694474" width="395.5199999999999"><g><rect width="397.4976" height="2.6927311774469316" x="0" y="83.55818380649592" fill="#ffffff" opacity="1" stroke-width="0" stroke="transparent" fill-opacity="1" class="rect-in-0" data-fill-palette-color="secondary" rx="1%" id="in-0" data-palette-color="#ffffff"></rect></g><g transform="matrix(1,0,0,1,0.9887999999999693,93.29994947987723)"><svg viewBox="0 0 395.52000000000004 55.36117895120226" height="55.36117895120226" width="395.52000000000004"><g><svg viewBox="0 0 395.52000000000004 55.36117895120226" height="55.36117895120226" width="395.52000000000004"><g><svg viewBox="0 0 395.52000000000004 29.85917457062292" height="29.85917457062292" width="395.52000000000004"><g transform="matrix(1,0,0,1,0,0)"><svg width="395.52000000000004" viewBox="3 -29.45 390.07 29.45" height="29.85917457062292" data-palette-color="#010c80"><path d="M26.2 0L9.6 0Q6.2 0 4.6-0.3 3-0.6 3-1L3-1 5-5.35Q6.15-5.15 10.73-4.98 15.3-4.8 23.3-4.8L23.3-4.8 24.25-4.8Q26.4-4.8 27.3-5.58 28.2-6.35 28.2-8.2L28.2-8.2 28.2-9.2Q28.2-10.95 27.48-11.7 26.75-12.45 24.25-12.45L24.25-12.45 12.65-12.45Q7.6-12.45 5.3-14.33 3-16.2 3-20.45L3-20.45 3-21.25Q3-23.45 3.83-25.3 4.65-27.15 6.65-28.28 8.65-29.4 12.15-29.4L12.15-29.4 25.75-29.4Q29.15-29.4 31.25-29.05 33.35-28.7 33.35-28.3L33.35-28.3 32.35-24.1Q31.05-24.25 26.45-24.43 21.85-24.6 14.1-24.6L14.1-24.6 13.55-24.65Q11.25-24.65 10.45-23.73 9.65-22.8 9.6-21.4L9.6-21.4 9.6-20.55Q9.6-18.9 10.53-18.07 11.45-17.25 13.6-17.25L13.6-17.25 24.7-17.25Q27.9-17.25 30.15-16.6 32.4-15.95 33.6-14.23 34.8-12.5 34.8-9.15L34.8-9.15 34.8-8.35Q34.8-4.6 32.88-2.3 30.95 0 26.2 0L26.2 0ZM48.9 0L42.3 0 42.3-25.4 41.8-29.45 63.95-29.45Q67.15-29.45 68.97-28.6 70.8-27.75 71.67-26.38 72.55-25 72.8-23.45 73.05-21.9 73.05-20.5L73.05-20.5 73.05-17.55Q73.05-16.4 72.7-14.98 72.35-13.55 71.4-12.23 70.45-10.9 68.65-10.03 66.85-9.15 63.95-9.15L63.95-9.15 58.85-9.15Q55.7-9.15 52.97-9.3 50.25-9.45 48.9-9.55L48.9-9.55 48.9 0ZM48.9-24.65L48.9-13.95 62.5-13.95Q64.75-13.95 65.6-15.05 66.45-16.15 66.45-17.7L66.45-17.7 66.45-20.85Q66.45-22.45 65.6-23.55 64.75-24.65 62.55-24.65L62.55-24.65 48.9-24.65ZM103.3 0L88.7 0Q85.2 0 83.2-1 81.2-2 80.37-4 79.55-6 79.55-8.95L79.55-8.95 79.55-20.5Q79.55-23.4 80.35-25.38 81.15-27.35 83.15-28.38 85.15-29.4 88.7-29.4L88.7-29.4 103.3-29.4Q106.8-29.4 108.77-28.38 110.75-27.35 111.57-25.38 112.4-23.4 112.4-20.5L112.4-20.5 112.4-8.95Q112.4-4.55 110.45-2.27 108.5 0 103.3 0L103.3 0ZM90.15-4.8L90.15-4.8 101.9-4.8Q103.75-4.8 104.77-5.75 105.8-6.7 105.8-8.35L105.8-8.35 105.8-21.1Q105.8-22.55 104.75-23.58 103.7-24.6 101.9-24.6L101.9-24.6 90.15-24.6Q88.35-24.6 87.25-23.65 86.15-22.7 86.15-21.1L86.15-21.1 86.15-8.35Q86.15-6.65 87.22-5.73 88.3-4.8 90.15-4.8ZM136.54 0L129.94 0 129.89-24.65 116.89-24.65 116.89-29.45 149.59-29.45 149.59-24.65 136.54-24.65 136.54 0ZM182.24 0L175.64 0 175.59-24.65 162.59-24.65 162.59-29.45 195.29-29.45 195.29-24.65 182.24-24.65 182.24 0ZM206.89 0L200.29 0 200.29-29.4 206.89-29.4 206.89-17.2 226.49-17.2 226.49-29.4 233.09-29.4 233.09 0 226.49 0 226.49-12.4 206.89-12.4 206.89 0ZM268.38 0L241.08 0 241.08-29.4 272.18-29.4 272.18-24.6 247.68-24.6 247.68-17.7 266.38-17.7 266.38-12.75 247.68-12.75 247.68-4.8 272.38-4.8 274.38-0.55Q274.38-0.35 273.03-0.18 271.68 0 268.38 0L268.38 0ZM307.03 0L300.43 0 300.38-24.65 287.38-24.65 287.38-29.45 320.08-29.45 320.08-24.65 307.03-24.65 307.03 0ZM341.73 0L335.13 0 335.08-24.65 322.08-24.65 322.08-29.45 354.78-29.45 354.78-24.65 341.73-24.65 341.73 0ZM382.97 0L360.27 0 360.27-25.4 359.77-29.4 382.97-29.4Q387.02-29.4 389.2-28.4 391.37-27.4 392.22-25.43 393.07-23.45 393.07-20.5L393.07-20.5 393.07-8.95Q393.07-5.95 392.25-3.98 391.42-2 389.25-1 387.07 0 382.97 0L382.97 0ZM366.87-24.6L366.87-4.8 382.57-4.8Q386.42-4.8 386.47-8.35L386.47-8.35 386.47-21.1Q386.47-22.55 385.62-23.58 384.77-24.6 382.57-24.6L382.57-24.6 366.87-24.6Z" opacity="1" transform="matrix(1,0,0,1,0,0)" fill="#010c80" class="undefined-text-0" data-fill-palette-color="primary" id="text-0"></path></svg></g></svg></g><g transform="matrix(1,0,0,1,146.56788999743657,36.9082090665573)"><svg viewBox="0 0 102.3842200051269 18.452969884644965" height="18.452969884644965" width="102.3842200051269"><g transform="matrix(1,0,0,1,0,0)"><svg width="102.3842200051269" viewBox="0.95 -32.1 180.58 32.550000000000004" height="18.452969884644965" data-palette-color="#ffffff"><path d="M23.55-32.1L23.85-31.65 23.55-27.75 17.75-28.05 15.05-28.05 14.8-10.1 15.05 0 9.85 0 10.15-9.65 9.9-28.05 7.2-28.05 1.3-27.75 0.95-28.2 1.35-32.1 23.55-32.1ZM42.6-11.9L42.05-11.3 28-11.25Q28.05-7.45 29.85-5.48 31.65-3.5 34.95-3.5L34.95-3.5Q38.4-3.5 41.7-5.55L41.7-5.55 42.2-5.25 41.45-1.15Q37.8 0.45 34.35 0.45L34.35 0.45Q29.2 0.45 26.27-2.73 23.35-5.9 23.35-11.4L23.35-11.4Q23.35-16.95 26.25-20.2 29.15-23.45 34.1-23.45L34.1-23.45Q38.3-23.45 40.57-21.15 42.85-18.85 42.85-14.65L42.85-14.65Q42.85-13.5 42.6-11.9L42.6-11.9ZM38.15-14.55L38.25-15.25Q38.25-17.6 37.17-18.8 36.1-20 34.05-20L34.05-20Q31.75-20 30.25-18.53 28.75-17.05 28.25-14.35L28.25-14.35 38.15-14.55ZM56.6-23.5Q60.05-23.5 62.05-21.85 64.05-20.2 64.05-17.25L64.05-17.25Q64.05-16.35 63.75-11.25L63.75-11.25Q63.45-6.25 63.45-5.4L63.45-5.4Q63.45-4.45 63.77-4.08 64.09-3.7 64.9-3.7L64.9-3.7Q65.4-3.7 66.4-3.9L66.4-3.9 66.84-3.55 66.34-0.75Q64.9 0.15 63.2 0.35L63.2 0.35Q61.65 0.2 60.7-0.78 59.75-1.75 59.55-3.35L59.55-3.35 59.2-3.35Q56.65-0.65 54 0.4L54 0.4Q50.55 0.35 48.57-1.4 46.6-3.15 46.6-6.15L46.6-6.15Q46.6-10.6 51.45-11.7L51.45-11.7 59.35-13.45 59.4-16.15Q59.4-18 58.47-18.95 57.55-19.9 55.8-19.9L55.8-19.9Q54.1-19.9 52.4-19.13 50.7-18.35 48.65-16.7L48.65-16.7 48.25-16.95 47.6-20.5Q52-23.5 56.6-23.5L56.6-23.5ZM59.35-10.5L52.85-8.95Q51.95-8.75 51.55-8.28 51.15-7.8 51.15-6.8L51.15-6.8Q51.15-5.3 51.97-4.45 52.8-3.6 54.2-3.6L54.2-3.6Q56.55-3.6 59.2-6.65L59.2-6.65 59.35-10.5ZM99.64 0L99.94-15.15Q99.99-17.05 99.07-18.13 98.14-19.2 96.39-19.2L96.39-19.2Q93.54-19.2 90.49-16.3L90.49-16.3 90.39-10.1 90.64 0 85.49 0 85.84-15.15Q85.89-17.05 84.97-18.13 84.04-19.2 82.29-19.2L82.29-19.2Q79.39-19.2 76.29-16.2L76.29-16.2 76.24-10.1 76.54 0 71.44 0 71.74-9.65 71.49-22.7 76.34-23.15 76.29-19.8 76.64-19.8Q79.59-22.4 82.79-23.35L82.79-23.35Q85.59-23.35 87.42-22.38 89.24-21.4 89.99-19.6L89.99-19.6 90.29-19.6Q93.34-22.25 96.89-23.35L96.89-23.35Q100.74-23.35 102.72-21.6 104.69-19.85 104.64-16.6L104.64-16.6 104.49-10.1 104.74 0 99.64 0ZM127.24-25.3L127.99-24.75 127.69-10.35 127.94 0 122.79 0 123.09-9.8 123.04-19.5 116.94-17.8 116.49-18.1 116.49-22.15 127.24-25.3ZM147.04-25.4Q152.09-25.4 154.86-22.13 157.64-18.85 157.64-12.8L157.64-12.8Q157.64-6.5 154.71-3.05 151.79 0.4 146.39 0.4L146.39 0.4Q141.29 0.4 138.49-2.88 135.69-6.15 135.69-12.1L135.69-12.1Q135.69-18.45 138.66-21.93 141.64-25.4 147.04-25.4L147.04-25.4ZM146.64-20.7Q139.69-20.7 139.69-12.45L139.69-12.45Q139.69-4.1 146.69-4.1L146.69-4.1Q150.14-4.1 151.91-6.13 153.69-8.15 153.69-12.2L153.69-12.2Q153.69-16.45 151.89-18.57 150.09-20.7 146.64-20.7L146.64-20.7ZM171.53-25.3Q174.73-25.3 176.78-23.73 178.83-22.15 178.83-19.5L178.83-19.5Q178.83-17.5 177.46-15.05 176.08-12.6 173.03-9.2L173.03-9.2 168.58-4.15 168.68-3.9 176.83-3.9 181.18-4.3 181.53-3.95 180.88 0.25 175.38 0 164.08 0 162.23 0.1 161.98-0.1 161.98-3.25 168.83-10.45Q171.43-13.25 172.63-15.05 173.83-16.85 173.83-18.25L173.83-18.25Q173.83-19.45 172.93-20.2 172.03-20.95 170.43-20.95L170.43-20.95Q168.73-20.95 166.96-20.1 165.18-19.25 163.68-17.75L163.68-17.75 163.13-17.75 162.28-21.7Q166.88-25.3 171.53-25.3L171.53-25.3Z" opacity="1" transform="matrix(1,0,0,1,0,0)" fill="#ffffff" class="undefined-text-1" data-fill-palette-color="secondary" id="text-1"></path></svg></g></svg></g></svg></g></svg></g><g transform="matrix(1,0,0,1,129.37967165070418,0)"><svg viewBox="0 0 138.7382566985916 76.50914931056154" height="76.50914931056154" width="138.7382566985916"><g><svg xmlns="http://www.w3.org/2000/svg" xmlns:xlink="http://www.w3.org/1999/xlink" version="1.2" baseProfile="tiny" x="8" y="0" viewBox="0.45700000000000074 14.271999999999997 52.415 32.672999999999995" xml:space="preserve" height="76.50914931056154" width="122.73825669859161" class="icon-icon-0" data-fill-palette-color="accent" id="icon-0"><path d="M40.723 37.464h12.149v1.26H40.723V37.464zM40.723 35.465h12.149v-4.519H40.723V35.465zM40.723 28.947h12.149v-1.26H40.723V28.947zM40.723 21.17v4.519h12.149V21.17H40.723zM32.317 21.17h6.743v1.26h-6.329c0.177 0.657 0.296 1.325 0.351 1.999h5.979v1.26h-5.953c-0.022 0.671-0.102 1.34-0.245 1.999h6.198v1.26h-6.554c-0.238 0.69-0.546 1.358-0.924 1.999h7.478v1.26h-8.336c-0.259 0.325-0.533 0.641-0.833 0.942-0.389 0.389-0.81 0.734-1.243 1.057H39.06v1.26H26.485c-1.375 0.599-2.868 0.921-4.413 0.921s-3.038-0.322-4.413-0.921h-3.597l-0.719 0.719 1.062 1.062-0.218 0.217H39.06v1.26H12.928l-8.221 8.221-4.25-4.251 9.698-9.698 0.875 0.875v-0.132h0.507l1.533-1.533h-2.04v-1.26h1.533c-0.378-0.641-0.686-1.309-0.924-1.999H11.03v-1.26h0.253c-0.143-0.659-0.223-1.327-0.245-1.999H11.03v-0.173c-0.002-0.125-0.002-0.249 0-0.374v-0.713h0.034c0.055-0.674 0.173-1.342 0.351-1.999H11.03v-1.26h0.798c0.19-0.471 0.427-0.926 0.685-1.372H11.03v-3.253h4.346c1.917-1.467 4.243-2.272 6.697-2.272 2.455 0 4.781 0.805 6.697 2.272h24.102v3.253h-21.24C31.891 20.244 32.127 20.699 32.317 21.17zM16.524 19.798c-0.396 0.397-0.738 0.828-1.031 1.281h13.161c-0.293-0.453-0.635-0.884-1.031-1.281l0 0c-0.003-0.003-0.006-0.007-0.009-0.01-1.479-1.479-3.446-2.294-5.54-2.294-2.093 0-4.061 0.814-5.541 2.295C16.529 19.791 16.527 19.795 16.524 19.798L16.524 19.798zM25.83 32.206L25.83 32.206c0.285-0.156 0.557-0.335 0.822-0.527 0.043-0.031 0.085-0.062 0.127-0.094 0.26-0.197 0.513-0.408 0.751-0.639 0.027-0.026 0.057-0.049 0.084-0.076 0.467-0.467 0.854-0.983 1.178-1.526H15.353c0.324 0.543 0.711 1.059 1.178 1.526 0.027 0.027 0.057 0.05 0.084 0.076 0.238 0.231 0.49 0.442 0.751 0.639 0.042 0.032 0.084 0.063 0.126 0.094 0.265 0.192 0.538 0.371 0.822 0.527l0 0c1.139 0.624 2.422 0.959 3.758 0.959S24.691 32.83 25.83 32.206zM29.848 24.428L29.848 24.428c-0.045-0.39-0.119-0.776-0.222-1.156H14.52c-0.103 0.381-0.178 0.767-0.222 1.156-0.048 0.418-0.059 0.839-0.04 1.26 0.022 0.492 0.091 0.981 0.205 1.463h15.22c0.114-0.482 0.183-0.971 0.205-1.463C29.907 25.267 29.896 24.847 29.848 24.428z" fill="#0c5ee3" data-fill-palette-color="accent"></path></svg></g></svg></g><g><rect width="52.84655165070417" height="2.6927311774469316" y="72.81641813311461" x="268.11792834929577" fill="#ffffff" data-fill-palette-color="secondary"></rect><rect width="52.84655165070417" height="2.6927311774469316" y="72.81641813311461" x="76.53312000000001" fill="#ffffff" data-fill-palette-color="secondary"></rect></g></svg></g></svg></g><g></g></svg></g><defs></defs></svg><rect width="395.52" height="247.2" fill="none" stroke="none" visibility="hidden"></rect></g></svg></g></svg>